# xmcd CD database file
#
# Track frame offsets:
#	150
#	15852
#	25687
#	41022
#	53220
#	66692
#	73765
#	84600
#	96772
#	110977
#	119225
#	130185
#	148815
#	160547
#	176730
#	191497
#	205892
#	221157
#	234112
#	248600
#
# Disc length: 3485 seconds
#
# Revision: 1
# Processed by: cddbd v1.5.1PL2 Copyright (c) Steve Scherf et al.
# Submitted via: jetAudio 5
#
DISCID=270d9b14
DTITLE=Various Artist - THE ULTIMATE COUNTRY CONCERT
DYEAR=1900
DGENRE=Country
TTITLE0=OLD DOGS CHILDREN AND WATERMELON WINE
TTITLE1=BEFORE THE NEXT TEARDROP FALLS
TTITLE2=HE STOPED LOVING HER TODAY
TTITLE3=FOUR IN THE MORNING
TTITLE4=CRYSTAL CHANDALIERS
TTITLE5=HEARTACHES BY THE NUMBER
TTITLE6=THE AUCTIONEER
TTITLE7=TEQUILA SHEILA
TTITLE8=OKIE FROM MUSKOGEE
TTITLE9=BIG BAD JOHN
TTITLE10=DIVORCE
TTITLE11=DELTA DAWN
TTITLE12=ROSE GARDEN
TTITLE13=TEDDY BEAR SONG
TTITLE14=CHAINS OF GOLD
TTITLE15=PLEASE MISTER PLEASE
TTITLE16=HEART OF THE COUNTRY
TTITLE17=STAND BY YOUR MAN
TTITLE18=DID WE HAVE TO COME THIS FAR
TTITLE19=SAN ANTONIO STROLL
EXTD=
EXTT0=
EXTT1=
EXTT2=
EXTT3=
EXTT4=
EXTT5=
EXTT6=
EXTT7=
EXTT8=
EXTT9=
EXTT10=
EXTT11=
EXTT12=
EXTT13=
EXTT14=
EXTT15=
EXTT16=
EXTT17=
EXTT18=
EXTT19=
PLAYORDER=
